<svg width="122" height="124" viewBox="0 0 122 124" fill="none" xmlns="http://www.w3.org/2000/svg">
<ellipse cx="61" cy="61.6016" rx="61" ry="61.6016" fill="black"/>
<ellipse cx="61" cy="61.6016" rx="52" ry="52.5128" fill="black"/>
<path d="M107 61.6016C107 87.3456 86.3497 108.114 61 108.114C35.6503 108.114 15 87.3456 15 61.6016C15 35.8576 35.6503 15.0888 61 15.0888C86.3497 15.0888 107 35.8576 107 61.6016Z" stroke="#07FFE1" stroke-opacity="0.34" stroke-width="12"/>
<path d="M61.33 30.5332C65.51 30.5332 69.14 30.9732 72.22 31.8532C75.3733 32.7332 77.7933 33.9799 79.48 35.5932C81.24 37.1332 82.12 39.0032 82.12 41.2032C82.12 42.6699 81.68 44.0632 80.8 45.3832C79.92 46.6299 78.6367 47.2532 76.95 47.2532C75.7767 47.2532 74.7867 47.1066 73.98 46.8132C73.2467 46.4466 72.5867 46.0066 72 45.4932C71.4133 44.9799 70.7167 44.5032 69.91 44.0632C69.1767 43.6232 68.04 43.2932 66.5 43.0732C65.0333 42.7799 63.9333 42.6332 63.2 42.6332C59.46 42.6332 56.27 43.4399 53.63 45.0532C51.0633 46.6666 49.0833 48.8666 47.69 51.6532C46.2967 54.3666 45.6 57.5199 45.6 61.1132C45.6 64.6332 46.2967 67.7866 47.69 70.5732C49.1567 73.2866 51.1367 75.4499 53.63 77.0632C56.1967 78.6766 59.13 79.4832 62.43 79.4832C64.2633 79.4832 65.84 79.3732 67.16 79.1532C68.48 78.9332 69.58 78.6032 70.46 78.1632C71.4867 77.5766 72.4033 76.9532 73.21 76.2932C74.0167 75.6332 75.2267 75.3032 76.84 75.3032C78.7467 75.3032 80.2133 75.9266 81.24 77.1732C82.2667 78.3466 82.78 79.8132 82.78 81.5732C82.78 83.4066 81.7533 85.0932 79.7 86.6332C77.6467 88.0999 74.9333 89.3099 71.56 90.2632C68.26 91.1432 64.6667 91.5832 60.78 91.5832C54.9867 91.5832 49.9633 90.2632 45.71 87.6232C41.4567 84.9099 38.1567 81.2432 35.81 76.6232C33.5367 72.0032 32.4 66.8332 32.4 61.1132C32.4 55.0999 33.61 49.8199 36.03 45.2732C38.5233 40.6532 41.9333 37.0599 46.26 34.4932C50.66 31.8532 55.6833 30.5332 61.33 30.5332Z" fill="#07FFE1" fill-opacity="0.82"/>
<path d="M73 60.5917C73 66.169 68.7467 70.6903 63.5 70.6903C58.2533 70.6903 54 66.169 54 60.5917C54 55.0144 58.2533 50.4931 63.5 50.4931C68.7467 50.4931 73 55.0144 73 60.5917Z" fill="#07FFE1" fill-opacity="0.34"/>
</svg>
